Coordinates
version=1
nRows=16
nColumns=22
inDegrees=yes

Units are S.I. units (second, meters, Newtons, ...)
If the header above contains a line with 'inDegrees', this indicates whether rotational values are in degrees (yes) or radians (no).

endheader
time	pelvis_tilt	pelvis_list	pelvis_rotation	pelvis_tx	pelvis_ty	pelvis_tz	hip_flexion_r	hip_adduction_r	hip_rotation_r	knee_angle_r	ankle_angle_r	subtalar_angle_r	hip_flexion_l	hip_adduction_l	hip_rotation_l	knee_angle_l	ankle_angle_l	subtalar_angle_l	lumbar_extension	lumbar_bending	lumbar_rotation
      2.78000000	      2.10145707	     -6.27835076	      6.02906859	     -0.71830675	      1.06632029	     -0.31857504	     13.49652270	      8.37250558	     -6.88399089	    -18.69501686	      5.50835240	     -6.02173075	      3.49587963	     -5.44171964	      5.95387642	    -56.38878026	    -11.60579348	      9.73723338	     -6.14592889	      5.58206695	     -9.32202640
      2.79000000	      2.31083069	     -6.46061565	      6.01804311	     -0.70841801	      1.06744192	     -0.31749158	     12.51965966	      8.71702707	     -6.93743031	    -18.32257472	      5.85676493	     -6.03728146	      4.71435013	     -5.59637794	      5.87352756	    -58.31958634	    -12.32317658	     10.06755288	     -6.31297256	      5.71189819	     -8.97523997
      2.80000000	      2.50799042	     -6.58188786	      5.93910440	     -0.69871079	      1.06855612	     -0.31637417	     11.56177895	      9.00330896	     -6.89723640	    -17.96858722	      6.18082199	     -6.01489758	      5.90254649	     -5.67522560	      5.75088570	    -60.00661062	    -12.53651368	     10.13928644	     -6.49211192	      5.76901505	     -8.58085739
      2.81000000	      2.67036668	     -6.66941021	      5.80341007	     -0.68912159	      1.06963830	     -0.31520441	     10.62586852	      9.25648085	     -6.79552114	    -17.58995699	      6.49194580	     -5.96362105	      7.07693311	     -5.71286410	      5.59650354	    -61.43915378	    -12.19574487	      9.96635803	     -6.64597818	      5.77143927	     -8.14158954
      2.82000000	      2.80106237	     -6.71692158	      5.61336162	     -0.67963173	      1.07070955	     -0.31398385	      9.70189239	      9.47190603	     -6.61274830	    -17.17857672	      6.77449992	     -5.86593261	      8.23097346	     -5.71641398	      5.38625721	    -62.60422107	    -11.48355982	      9.43351256	     -6.77528408	      5.71905555	     -7.68605681
      2.83000000	      2.93285013	     -6.71152560	      5.39324190	     -0.67028109	      1.07178433	     -0.31277506	      8.77932085	      9.62814782	     -6.38777701	    -16.78005111	      7.07388267	     -5.75578936	      9.32812360	     -5.66267022	      5.15994418	    -63.50588760	    -10.42610006	      8.73170462	     -6.92767256	      5.60288097	     -7.21664781
      2.84000000	      3.05977883	     -6.66066538	      5.15436435	     -0.66102941	      1.07285608	     -0.31159929	      7.85536320	      9.72946016	     -6.14476790	    -16.37504215	      7.37245942	     -5.62588677	     10.37449276	     -5.56356655	      4.92000062	    -64.14503096	     -9.15533900	      7.94999520	     -7.08857824	      5.43532660	     -6.74384806
      2.85000000	      3.18022483	     -6.57071291	      4.90242876	     -0.65184854	      1.07391253	     -0.31045574	      6.93140480	      9.78122750	     -5.90248718	    -15.95968452	      7.67364124	     -5.47874556	     11.36975121	     -5.43072133	      4.66684228	    -64.52563784	     -7.76453259	      7.15965943	     -7.25141034	      5.22204704	     -6.27957960
      2.86000000	      3.29261728	     -6.44486481	      4.64382746	     -0.64271778	      1.07494195	     -0.30935950	      6.00805622	      9.78551957	     -5.65816895	    -15.52969759	      7.97322846	     -5.31744201	     12.31477315	     -5.27290703	      4.39768471	    -64.65438932	     -6.32143513	      6.38524356	     -7.40946082	      4.97003084	     -5.85150246
      2.87000000	      3.39671054	     -6.29150935	      4.38916076	     -0.63364038	      1.07591742	     -0.30833127	      5.10150293	      9.74786412	     -5.42564064	    -15.11014665	      8.26764097	     -5.15714803	     13.21399975	     -5.09425482	      4.13206514	    -64.54749800	     -4.85425636	      5.66824755	     -7.56084704	      4.69254449	     -5.45966190
      2.88000000	      3.47953623	     -6.12734344	      4.12701229	     -0.62463017	      1.07680188	     -0.30734090	      4.23108369	      9.69032374	     -5.16034699	    -14.70819723	      8.55906813	     -5.01823234	     14.08277915	     -4.91549312	      3.86622789	    -64.21881240	     -3.39729385	      5.06140337	     -7.69541150	      4.40133499	     -5.06643161
      2.89000000	      3.54855666	     -5.94769622	      3.87491482	     -0.61566379	      1.07759330	     -0.30642690	      3.39489489	      9.60346199	     -4.90046633	    -14.33528897	      8.84761530	     -4.89895839	     14.91084722	     -4.73290456	      3.60730989	    -63.67387810	     -1.96293580	      4.49963084	     -7.81499450	      4.09888089	     -4.70964834
      2.90000000	      3.59533272	     -5.76303103	      3.62445343	     -0.60674304	      1.07826168	     -0.30557932	      2.60745174	      9.49967165	     -4.63264336	    -14.00110263	      9.14296255	     -4.80993101	     15.70754505	     -4.55698738	      3.35395612	    -62.92792128	     -0.56672453	      4.00454068	     -7.91118602	      3.79518839	     -4.36628831
      2.91000000	      3.62868567	     -5.57292322	      3.39431427	     -0.59783233	      1.07882133	     -0.30481396	      1.85533671	      9.38043730	     -4.36976145	    -13.69984089	      9.43374152	     -4.74655206	     16.46298532	     -4.39650242	      3.09916648	    -61.98596127	      0.76493671	      3.54603320	     -7.98644716	      3.49228941	     -4.08006093
      2.92000000	      3.64355788	     -5.38722203	      3.17830312	     -0.58895463	      1.07924609	     -0.30412530	      1.14830495	      9.25658565	     -4.11321480	    -13.43684010	      9.73573131	     -4.71107392	     17.18730187	     -4.25354419	      2.85565148	    -60.87151695	      2.02917232	      3.15532272	     -8.04074790	      3.19738401	     -3.80927075
      2.93000000	      3.64477077	     -5.20736857	      2.98493750	     -0.58008943	      1.07953960	     -0.30352736	      0.48003357	      9.13032311	     -3.87232612	    -13.21164286	     10.04620516	     -4.69824752	     17.87901902	     -4.14064968	      2.60264972	    -59.59845253	      3.20449477	      2.83291359	     -8.07579233	      2.91671661	     -3.57009815
